<svg width="40" height="46" viewBox="0 0 40 46" fill="none" xmlns="http://www.w3.org/2000/svg">
<g id="Frame" clip-path="url(#clip0_308_1131)">
<path id="Vector" d="M36.7229 33.864C36.1088 34.9447 35.3842 35.9616 34.5589 36.8974L34.5811 36.9195L33.8147 37.6883C30.403 41.1197 25.8615 43.011 21.0252 43.011C16.2086 43.011 11.6793 41.1344 8.27253 37.7276C4.86576 34.3209 2.98921 29.7916 2.98921 24.975C2.98921 24.6188 2.99904 24.2578 3.02114 23.8991C3.0236 23.85 3.02606 23.8009 3.03097 23.7493V23.7346C3.03343 23.7027 3.03588 23.6683 3.03834 23.6363V23.6191C3.04325 23.5455 3.05062 23.4693 3.05799 23.3956C3.0629 23.3342 3.06781 23.2704 3.07518 23.204C3.08501 23.1082 3.09483 23.01 3.10466 22.9142C3.11202 22.8577 3.11694 22.7939 3.12676 22.7324C3.13659 22.6538 3.14641 22.563 3.15869 22.4745C3.16606 22.4254 3.17343 22.3763 3.1808 22.3272C3.19062 22.2461 3.20536 22.1552 3.2201 22.0668C3.22747 22.0201 3.23729 21.9661 3.24466 21.9145C3.25203 21.8703 3.2594 21.8261 3.26922 21.7819C3.27905 21.7254 3.29133 21.6591 3.30361 21.5952C3.31343 21.5387 3.32572 21.4773 3.338 21.4159C3.35273 21.3447 3.36501 21.2759 3.38221 21.2022C3.48537 20.711 3.61309 20.2173 3.75801 19.7359L3.76292 19.7236C3.78012 19.6597 3.79976 19.5959 3.82187 19.5345C3.83906 19.4804 3.85626 19.4264 3.87345 19.3699C3.97661 19.0555 4.0896 18.7362 4.20995 18.4292C4.22715 18.3874 4.24434 18.3407 4.26153 18.2965C4.28118 18.2499 4.29838 18.2007 4.32048 18.1491C4.34504 18.0902 4.37206 18.0239 4.39908 17.9576C4.41873 17.9084 4.44329 17.8519 4.46786 17.7979L4.47768 17.7733C4.51207 17.6997 4.544 17.6235 4.57838 17.5498C4.60295 17.4933 4.62751 17.4393 4.65453 17.3853C5.10893 16.4028 5.66158 15.4547 6.29282 14.5655L6.39598 14.4255C6.46721 14.3273 6.53844 14.229 6.61213 14.1357C6.64652 14.0915 6.68336 14.0424 6.7202 13.9957C6.7988 13.8925 6.87986 13.7918 6.95846 13.6936C7.00513 13.6371 7.05179 13.5757 7.10092 13.5192C7.14513 13.4651 7.19425 13.4087 7.24338 13.3497C7.29005 13.2932 7.34163 13.2343 7.39075 13.1778C7.44724 13.1139 7.50374 13.0476 7.56023 12.9837L5.44297 10.864C1.93059 14.7276 0 19.7211 0 24.9725C0 30.5899 2.18603 35.8683 6.15773 39.84C10.1294 43.8117 15.4078 45.9977 21.0252 45.9977C26.6598 45.9977 31.9529 43.797 35.9271 39.8031C37.0618 38.6635 38.0615 37.401 38.904 36.0427L36.7229 33.864Z" fill="#C8A35F"/>
<path id="Vector_2" d="M9.81267 36.1875C12.8068 39.1816 16.7908 40.8322 21.0253 40.8322C21.1579 40.8322 21.2906 40.8297 21.4232 40.8273C21.4895 40.8273 21.5534 40.8248 21.6197 40.8224H21.6295C21.7278 40.8174 21.8236 40.8125 21.9218 40.8076C22.0004 40.8027 22.0765 40.7978 22.1551 40.7929C22.1944 40.7904 22.2288 40.788 22.2608 40.7855L22.3148 40.7806C22.386 40.7757 22.4573 40.7683 22.5309 40.7609C22.5948 40.756 22.6538 40.7511 22.7152 40.7438C22.7594 40.7388 22.7987 40.7339 22.8355 40.7315L22.9166 40.7216C22.9681 40.7143 23.0197 40.7094 23.0738 40.702C23.2703 40.6774 23.4618 40.6504 23.651 40.6185C23.705 40.6087 23.7566 40.5988 23.8082 40.5915L23.8254 40.589C23.8671 40.5816 23.9089 40.5743 23.9482 40.5669L23.9678 40.562C24.0219 40.5522 24.0759 40.5423 24.1299 40.5301C24.2724 40.503 24.4124 40.4736 24.5499 40.4416C24.6433 40.422 24.7366 40.3974 24.83 40.3753L24.8422 40.3729C24.8668 40.368 24.8889 40.363 24.9135 40.3557C24.9822 40.3385 25.0436 40.3213 25.1075 40.3066C25.1615 40.2918 25.2131 40.2795 25.2622 40.2648C25.3065 40.2525 25.3458 40.2427 25.3826 40.2304C25.4194 40.2206 25.4489 40.2132 25.4759 40.2034L25.498 40.196C25.5373 40.1862 25.5766 40.1739 25.6159 40.1616C25.6823 40.142 25.7388 40.1248 25.7952 40.1051C25.8419 40.0904 25.8812 40.0781 25.9254 40.0658C26.0581 40.0216 26.1907 39.9774 26.3209 39.9307C26.3577 39.9185 26.3921 39.9062 26.4265 39.8939L26.4535 39.8841C26.5002 39.8669 26.5419 39.8521 26.5812 39.8374C26.6476 39.8129 26.704 39.7907 26.763 39.7686C26.8121 39.749 26.8563 39.7342 26.8981 39.7171C26.9791 39.6851 27.0528 39.6557 27.1265 39.6237L27.3476 39.5304C27.4163 39.5009 27.4851 39.4714 27.549 39.442C27.5883 39.4248 27.6202 39.41 27.6546 39.3953L27.6865 39.3806C27.7406 39.356 27.7946 39.329 27.8486 39.3044C28.1827 39.1448 28.5118 38.9753 28.8287 38.7935C28.8631 38.7739 28.895 38.7542 28.9294 38.737C29.0031 38.6953 29.0767 38.6511 29.148 38.6093L29.5115 38.3858C29.6712 38.2826 29.8382 38.1746 30.0175 38.0517C30.0666 38.0174 30.1157 37.983 30.1649 37.9486L30.1845 37.9338C30.2213 37.9068 30.2582 37.8823 30.295 37.8552L30.3049 37.8479C30.3319 37.8282 30.3589 37.8086 30.3859 37.7889L30.3957 37.7816C30.4424 37.7496 30.4866 37.7152 30.5308 37.6809C30.5824 37.644 30.6315 37.6047 30.6782 37.5679C30.7126 37.5408 30.7396 37.5187 30.7691 37.4966L30.8035 37.4696C30.8526 37.4303 30.9042 37.391 30.9533 37.3493C31.0049 37.3075 31.0565 37.2658 31.1056 37.2265L31.1179 37.2166C31.2137 37.138 31.307 37.057 31.4028 36.9759C31.4323 36.9514 31.4593 36.9268 31.4888 36.8998L29.369 34.7776C27.0479 36.7573 24.1029 37.8405 21.0327 37.8405C13.9391 37.8405 8.16701 32.0684 8.16701 24.9749C8.16701 21.5165 9.52038 18.2718 11.9741 15.8377C13.1261 14.6956 14.5065 13.7696 15.9974 13.1334L13.7475 10.8835C12.3131 11.6278 11.0039 12.5832 9.85197 13.7278C6.83083 16.7269 5.16797 20.7182 5.16797 24.9724C5.16797 29.2094 6.81854 33.1909 9.81267 36.1875Z" fill="white"/>
<path id="Vector_3" d="M39.0192 21.0252C39.0192 15.4078 36.8332 10.1294 32.8615 6.15773C28.8898 2.18603 23.6089 0 17.9916 0C12.357 0 7.06388 2.19831 3.09218 6.19457C1.95741 7.3318 0.957731 8.59675 0.112793 9.95504L2.29637 12.1386C2.91042 11.0579 3.63501 10.041 4.46029 9.10519L4.43819 9.08308L5.20453 8.31429C8.61375 4.88296 13.1578 2.99167 17.994 2.99167C22.8107 2.99167 27.3399 4.86822 30.7467 8.27499C34.1535 11.6818 36.03 16.2086 36.03 21.0277C36.03 21.3838 36.0202 21.7473 35.9981 22.1035C35.9956 22.1501 35.9932 22.2017 35.9883 22.2533C35.9858 22.2902 35.9834 22.327 35.9809 22.3638V22.381C35.976 22.4547 35.9686 22.5309 35.9613 22.6045C35.9563 22.666 35.9514 22.7323 35.9441 22.7986C35.9342 22.8919 35.9244 22.9902 35.9146 23.0884C35.9072 23.1449 35.9023 23.2063 35.8925 23.2702C35.8827 23.3488 35.8728 23.4372 35.8605 23.5281C35.8532 23.5772 35.8458 23.6263 35.8384 23.673C35.8286 23.7565 35.8139 23.8449 35.7991 23.9358C35.7918 23.9825 35.7819 24.0365 35.7746 24.0881C35.7672 24.1323 35.7598 24.1765 35.75 24.2207C35.7402 24.2772 35.7279 24.3435 35.7156 24.4074C35.7058 24.4639 35.6935 24.5253 35.6788 24.5867C35.6665 24.6555 35.6518 24.7267 35.6346 24.8004C35.5314 25.2916 35.4037 25.7878 35.2588 26.2668C35.2391 26.3331 35.2195 26.4019 35.1949 26.4706C35.1777 26.5247 35.1605 26.5787 35.1433 26.6352C35.0402 26.952 34.9272 27.2689 34.8068 27.5759C34.7896 27.6177 34.7724 27.6619 34.7553 27.7061C34.7356 27.7552 34.716 27.8044 34.6963 27.8535C34.6717 27.9124 34.6447 27.9787 34.6177 28.0451C34.5981 28.0942 34.5735 28.1507 34.5489 28.2047L34.5391 28.2293C34.5047 28.303 34.4728 28.3791 34.4384 28.4528C34.4138 28.5093 34.3893 28.5633 34.3623 28.6174C33.9079 29.5998 33.3552 30.5479 32.724 31.4371L32.6233 31.5771C32.5496 31.6778 32.4783 31.7736 32.4071 31.8669C32.3727 31.9136 32.3359 31.9603 32.299 32.0069C32.2204 32.1101 32.1394 32.2108 32.0608 32.3091C32.0141 32.3655 31.9674 32.427 31.9183 32.4834C31.8766 32.535 31.8324 32.5891 31.7857 32.6431L31.7759 32.6529C31.7267 32.7094 31.6776 32.7684 31.626 32.8249C31.5695 32.8887 31.5131 32.955 31.4566 33.0189L33.5738 35.1386C37.0887 31.275 39.0192 26.279 39.0192 21.0252Z" fill="white"/>
<path id="Vector_4" d="M23.027 32.8692L25.2769 35.1191C26.7113 34.3748 28.0205 33.4194 29.1725 32.2748C32.1912 29.2757 33.8516 25.2819 33.8516 21.0278C33.8516 16.7932 32.201 12.8093 29.2069 9.81513C26.2103 6.81855 22.2288 5.16797 17.9918 5.16797C17.8591 5.16797 17.7265 5.17042 17.5939 5.17288C17.5276 5.17288 17.4637 5.17534 17.3974 5.17779H17.39C17.2918 5.18271 17.196 5.18762 17.0977 5.19253C17.0191 5.19744 16.943 5.20236 16.8644 5.20727C16.8251 5.20972 16.7907 5.21218 16.7588 5.21464L16.7047 5.21955C16.636 5.22446 16.5623 5.23183 16.491 5.2392C16.4272 5.24657 16.3682 5.25148 16.3068 5.25885C16.2626 5.26376 16.2233 5.26867 16.1865 5.27113L16.1251 5.2785C16.1177 5.2785 16.1103 5.28095 16.1054 5.28095C16.0538 5.28587 16.0022 5.29324 15.9507 5.3006C15.7542 5.32517 15.5626 5.35464 15.3735 5.38412C15.3194 5.39394 15.2678 5.40131 15.2163 5.41113L15.1991 5.41359C15.1573 5.42096 15.118 5.42833 15.0787 5.4357L15.0517 5.44061C15.0001 5.45043 14.9485 5.46026 14.8945 5.47008C14.7471 5.4971 14.6071 5.52658 14.4696 5.55851C14.3762 5.57816 14.2829 5.60272 14.1896 5.62482L14.1773 5.62728C14.1527 5.63219 14.1306 5.63711 14.106 5.64447C14.0373 5.66167 13.9759 5.67886 13.912 5.6936C13.858 5.70834 13.8088 5.72062 13.7573 5.73535C13.7131 5.74764 13.6738 5.75746 13.6345 5.76974C13.5976 5.77957 13.5681 5.78939 13.5411 5.79676L13.519 5.80413C13.4797 5.81395 13.4404 5.82623 13.4011 5.83852C13.3348 5.85817 13.2783 5.87536 13.2218 5.89501C13.1751 5.90975 13.1358 5.92203 13.0916 5.93431C12.959 5.97852 12.8264 6.02273 12.6962 6.0694C12.6593 6.08168 12.6274 6.09396 12.593 6.10624L12.5635 6.11607C12.5193 6.13326 12.48 6.14554 12.4407 6.16274C12.372 6.1873 12.313 6.2094 12.2541 6.23397C12.2049 6.25362 12.1632 6.27081 12.119 6.288C12.0379 6.31993 11.9642 6.34941 11.8905 6.38134L11.6695 6.47468C11.6007 6.50415 11.5344 6.53363 11.4681 6.5631C11.4312 6.58029 11.3968 6.59503 11.3625 6.60977L11.3305 6.62451C11.2765 6.64907 11.2225 6.67609 11.1684 6.70065C10.8344 6.8603 10.5052 7.02978 10.1884 7.21154C10.1515 7.23119 10.1221 7.24838 10.0877 7.26803C10.0189 7.30733 9.94768 7.34909 9.88136 7.38839L9.65293 7.52839C9.60626 7.55787 9.55714 7.5898 9.50801 7.61927C9.3459 7.72243 9.18134 7.83051 9.00449 7.95332C8.95782 7.98525 8.91361 8.01718 8.8694 8.04665L8.83992 8.0663C8.79817 8.09578 8.76133 8.1228 8.72448 8.14982L8.70974 8.15964C8.68518 8.17929 8.66062 8.19648 8.6336 8.21613L8.62378 8.2235C8.57711 8.25543 8.5329 8.28982 8.48869 8.32421C8.43711 8.36105 8.39044 8.40035 8.34131 8.43719C8.30693 8.46421 8.27745 8.48632 8.25043 8.50842L8.21605 8.53544C8.16692 8.57474 8.11534 8.61404 8.06622 8.6558C8.00972 8.70001 7.95569 8.74668 7.90165 8.79089C7.80586 8.86949 7.71252 8.94809 7.61673 9.0316C7.58725 9.05616 7.56024 9.08072 7.53076 9.10774L9.65293 11.2299C11.9741 9.2502 14.9191 8.16455 17.9893 8.16455C25.0829 8.16455 30.855 13.9367 30.855 21.0302C30.855 24.4886 29.5016 27.7332 27.0478 30.1673C25.8983 31.3046 24.5179 32.233 23.027 32.8692Z" fill="#C8A35F"/>
</g>
<defs>
<clipPath id="clip0_308_1131">
<rect width="39.0194" height="46" fill="white"/>
</clipPath>
</defs>
</svg>
