<svg width="30" height="30" viewBox="0 0 30 30" fill="none" xmlns="http://www.w3.org/2000/svg">
<g opacity="0.8" clip-path="url(#clip0_308_1171)">
<path d="M14.9767 0C10.1109 0 6.15234 3.95851 6.15234 8.82431V21.1757C6.15234 26.0415 10.1109 30 14.9767 30C19.8425 30 23.801 26.0415 23.801 21.1757V8.82431C23.801 3.95851 19.8425 0 14.9767 0ZM22.001 21.1757C22.001 25.0488 18.8498 28.2001 14.9767 28.2001C11.1035 28.2001 7.95227 25.0488 7.95227 21.1757V8.82431C7.95227 4.95117 11.1035 1.79993 14.9767 1.79993C18.8498 1.79993 22.001 4.95117 22.001 8.82431V21.1757Z" fill="white"/>
<path d="M14.9771 5.96777C14.48 5.96777 14.0771 6.37061 14.0771 6.86774V11.01C14.0771 11.5069 14.48 11.91 14.9771 11.91C15.474 11.91 15.8771 11.5069 15.8771 11.01V6.86774C15.8771 6.37061 15.4742 5.96777 14.9771 5.96777Z" fill="white"/>
</g>
<defs>
<clipPath id="clip0_308_1171">
<rect width="30" height="30" fill="white"/>
</clipPath>
</defs>
</svg>
