<svg width="110" height="22" viewBox="0 0 110 22" fill="none" xmlns="http://www.w3.org/2000/svg">
<g id="Frame" clip-path="url(#clip0_308_1136)">
<g id="Group">
<path id="Vector" d="M7.91987 18.2354L7.30615 20.0896H8.54665L7.93293 18.2354H7.91987Z" fill="white"/>
<path id="Vector_2" d="M8.80757 7.74983C8.59865 8.68347 8.20038 9.39513 7.62583 9.8848C7.03822 10.3549 6.32657 10.5965 5.4778 10.5965C4.78573 10.5965 4.14589 10.4202 3.5387 10.0741C2.95109 9.7281 2.51365 9.19273 2.23944 8.48107C1.9391 7.76941 1.80199 6.92065 1.80199 5.96742C1.80199 5.22312 1.92604 4.49187 2.16762 3.7998C2.40919 3.1012 2.82704 2.54624 3.40159 2.13492C3.9892 1.73665 4.7335 1.52772 5.60185 1.52772C6.36574 1.52772 6.98599 1.704 7.48872 2.08268C7.99145 2.44831 8.37013 3.03591 8.63129 3.85203L8.66394 3.93691L10.4006 3.53864L10.368 3.43418C10.0415 2.3569 9.467 1.50814 8.65088 0.900942C7.83476 0.313335 6.8293 0.0195312 5.6345 0.0195312C4.59639 0.0195312 3.62358 0.248045 2.73564 0.711602C1.87381 1.19475 1.18174 1.88682 0.711657 2.79434C0.241572 3.69534 0 4.76609 0 5.96742C0 7.07734 0.208927 8.13504 0.626781 9.08827C1.04463 10.0611 1.66489 10.825 2.48101 11.3277C3.27754 11.85 4.33523 12.1112 5.62144 12.1112C6.85541 12.1112 7.91311 11.7651 8.77493 11.1057C9.64328 10.4463 10.2309 9.46042 10.5639 8.1938L10.5965 8.08933L8.84675 7.65842L8.80757 7.74983Z" fill="white"/>
<path id="Vector_3" d="M24.6924 0.783476C23.8044 0.261159 22.799 0 21.7086 0C20.0242 0 18.64 0.554962 17.5823 1.6453C16.5246 2.73564 15.9893 4.283 15.9893 6.20252C15.9893 7.22756 16.2178 8.19385 16.6813 9.11443C17.1318 10.035 17.8108 10.7597 18.6922 11.3016C19.5737 11.837 20.5856 12.0982 21.689 12.0982C22.7271 12.0982 23.7 11.8566 24.5814 11.3669C25.4824 10.8968 26.1744 10.1721 26.6772 9.23196C27.1603 8.31137 27.4084 7.24062 27.4084 6.05888C27.4084 4.89672 27.1668 3.85862 26.7163 2.93803C26.2528 2.03051 25.5738 1.29926 24.6924 0.783476ZM24.503 9.41477C23.7718 10.1917 22.8186 10.5965 21.6956 10.5965C20.5856 10.5965 19.652 10.1982 18.9012 9.43435C18.1699 8.65088 17.7913 7.58013 17.7913 6.22863C17.7913 4.54416 18.1895 3.31671 18.9534 2.60506C19.7173 1.8934 20.6509 1.52778 21.7086 1.52778C22.4725 1.52778 23.145 1.71712 23.7522 2.08274C24.3398 2.44836 24.8099 2.98374 25.1233 3.66275C25.4367 4.34176 25.5934 5.15135 25.5934 6.07194C25.5934 7.50831 25.2277 8.63782 24.503 9.41477Z" fill="white"/>
<path id="Vector_4" d="M42.5687 0.502657L39.7743 8.46147C39.5458 9.1013 39.376 9.60403 39.252 10.0023L38.7819 8.61816L35.994 0.398193H35.8047V4.64855L38.3902 12.1046H39.931L42.5687 4.66161V0.502657Z" fill="white"/>
<path id="Vector_5" d="M35.178 0.398193H33.4805V12.1046H35.178V0.398193Z" fill="white"/>
<path id="Vector_6" d="M44.8734 0.398193H43.189V12.1046H44.8734V0.398193Z" fill="white"/>
<path id="Vector_7" d="M52.6951 0.398193H50.9453V12.1046H52.6951V0.398193Z" fill="white"/>
<path id="Vector_8" d="M59.7337 2.21977C59.4725 1.73663 59.1592 1.33836 58.7478 1.07721C58.3496 0.79646 57.8468 0.60712 57.2723 0.522244C56.8544 0.437367 56.2472 0.398193 55.4703 0.398193H53.3223V1.95862H55.5943C56.2864 1.95862 56.7565 1.99126 57.0177 2.06308C57.3963 2.16754 57.7097 2.37647 57.9382 2.70292C58.1798 3.02937 58.2843 3.41457 58.2843 3.88466C58.2843 4.51144 58.0949 4.99458 57.6967 5.34062C57.2984 5.68665 56.6063 5.86294 55.6335 5.86294H53.3288V7.44295H55.6205C57.2853 7.44295 58.4801 7.07732 59.12 6.38525C59.7794 5.69318 60.1059 4.84442 60.1059 3.83896C60.0993 3.24482 59.9753 2.70292 59.7337 2.21977Z" fill="white"/>
<path id="Vector_9" d="M70.7414 0.398312L66.1646 12.1047H68.0188L68.5411 10.7337H68.5215L69.8404 7.18191L70.1211 6.45066L71.0939 3.86519H71.1135C71.3224 3.29064 71.4922 2.70304 71.6358 2.12849C71.8121 2.68345 72.0537 3.36246 72.3475 4.11982L73.5292 7.16885H70.5324L69.9971 8.60522H74.0907L75.4618 12.0917H77.4531L72.5629 0.385254H70.7414V0.398312Z" fill="white"/>
<path id="Vector_10" d="M84.9682 0.398193H83.3359V12.1046H84.9682V0.398193Z" fill="white"/>
<path id="Vector_11" d="M91.0659 9.19271L91.0332 9.14048V12.1046H92.7634V0.398193H91.0659V9.19271Z" fill="white"/>
<path id="Vector_12" d="M85.5884 4.14585L90.4068 11.2167V8.21992L85.5884 1.16211V4.14585Z" fill="white"/>
<path id="Vector_13" d="M107.917 0.398193L105.612 3.83243C105.162 4.51144 104.764 5.15128 104.418 5.70624V5.68666L103.445 7.1622V12.1046H105.214V7.1622L109.98 0.398193H107.917V0.398193Z" fill="white"/>
<path id="Vector_14" d="M104.052 5.07946L103.327 3.91731L100.983 0.398193H98.8354L103.066 6.60724L104.052 5.07946Z" fill="white"/>
<path id="Vector_15" d="M0 17.9415H1.16216V21.6108H1.80852V17.9415H2.97068V17.3669H0V17.9415Z" fill="white"/>
<path id="Vector_16" d="M7.65851 17.3669L6.11768 21.6108H6.79669L7.12314 20.6641H8.73579L9.06224 21.6108H9.74125L8.20042 17.3669H7.65851ZM7.30595 20.0895L7.91967 18.2353H7.93273L8.54645 20.0895H7.30595Z" fill="white"/>
<path id="Vector_17" d="M15.0361 19.8806H15.8979V20.1026C15.8914 20.3703 15.813 20.5858 15.6498 20.749C15.4866 20.9188 15.2777 21.0036 15.0296 21.0036C14.8794 21.0036 14.7488 20.971 14.6378 20.9057C14.5268 20.8535 14.4354 20.7816 14.3701 20.6902C14.2852 20.5988 14.233 20.4813 14.2069 20.3311C14.1743 20.181 14.1612 19.9002 14.1612 19.4824C14.1612 19.0645 14.1743 18.7838 14.2069 18.6271C14.233 18.4834 14.2918 18.3659 14.3701 18.2745C14.4354 18.1896 14.5268 18.1113 14.6378 18.0591C14.7488 18.0003 14.8794 17.9742 15.0296 17.9677C15.2319 17.9742 15.4082 18.0329 15.5519 18.1439C15.689 18.2615 15.7869 18.4116 15.8391 18.5814H16.5182C16.4529 18.2288 16.2896 17.9285 16.0285 17.6869C15.7673 17.4453 15.4343 17.3278 15.0296 17.3213C14.6966 17.3278 14.4158 17.4062 14.1938 17.5629C13.9653 17.713 13.8021 17.8893 13.6976 18.0852C13.6324 18.1896 13.5866 18.3202 13.554 18.49C13.5279 18.6597 13.5083 18.9862 13.5083 19.4824C13.5083 19.9655 13.5214 20.2985 13.554 20.4683C13.5671 20.5597 13.5866 20.638 13.6128 20.6968C13.6389 20.7555 13.665 20.8143 13.6976 20.8796C13.8021 21.0754 13.9653 21.2452 14.1938 21.3954C14.4158 21.5521 14.6966 21.6304 15.0296 21.6369C15.4605 21.6304 15.8196 21.4802 16.1068 21.1995C16.3876 20.9122 16.5377 20.5597 16.5443 20.1287V19.2669H15.0361V19.8806V19.8806Z" fill="white"/>
<path id="Vector_18" d="M21.5129 17.3669H20.873V21.6108H23.5826V21.0036H21.5129V17.3669Z" fill="white"/>
<path id="Vector_19" d="M28.4074 17.3669H27.7676V21.6108H28.4074V17.3669Z" fill="white"/>
<path id="Vector_20" d="M35.4131 20.3833H35.4066L33.4805 17.3669H32.8799V21.6108H33.5197V18.5944H33.5328L35.4523 21.6108H36.0595V17.3669H35.4131V20.3833Z" fill="white"/>
<path id="Vector_21" d="M40.5317 21.6108H43.2413V21.0036H41.1781V19.7565H42.9409V19.1885H41.1781V17.9741H43.2413V17.3669H40.5317V21.6108Z" fill="white"/>
<path id="Vector_22" d="M53.8051 19.8806H54.6669V20.1026C54.6604 20.3703 54.5821 20.5858 54.4188 20.749C54.2556 20.9188 54.0467 21.0036 53.7986 21.0036C53.6484 21.0036 53.5179 20.971 53.4069 20.9057C53.2959 20.8535 53.2045 20.7816 53.1392 20.6902C53.0543 20.5988 53.0021 20.4813 52.9759 20.3311C52.9433 20.181 52.9302 19.9002 52.9302 19.4824C52.9302 19.0645 52.9433 18.7838 52.9759 18.6271C53.0021 18.4834 53.0608 18.3659 53.1392 18.2745C53.2045 18.1896 53.2959 18.1113 53.4069 18.0591C53.5179 18.0003 53.6484 17.9742 53.7986 17.9677C54.0075 17.9742 54.1773 18.0329 54.3209 18.1439C54.458 18.2615 54.556 18.4116 54.6082 18.5814H55.2872C55.2219 18.2288 55.0587 17.9285 54.7975 17.6869C54.5429 17.4453 54.2034 17.3278 53.7986 17.3213C53.4656 17.3278 53.1849 17.4062 52.9629 17.5629C52.7344 17.713 52.5711 17.8893 52.4667 18.0852C52.4014 18.1896 52.3557 18.3202 52.323 18.49C52.2969 18.6597 52.2773 18.9862 52.2773 19.4824C52.2773 19.9655 52.2904 20.2985 52.323 20.4683C52.3361 20.5597 52.3557 20.638 52.3818 20.6968C52.4079 20.7555 52.434 20.8143 52.4667 20.8796C52.5711 21.0754 52.7344 21.2452 52.9629 21.3954C53.1849 21.5521 53.4656 21.6304 53.7986 21.6369C54.2295 21.6304 54.5886 21.4802 54.8759 21.1995C55.1566 20.9122 55.3068 20.5597 55.3133 20.1287V19.2669H53.8051V19.8806Z" fill="white"/>
<path id="Vector_23" d="M62.3383 18.0918C62.2404 17.8959 62.0772 17.7196 61.8552 17.5695C61.6267 17.4128 61.3459 17.3344 61.0129 17.3279C60.68 17.3344 60.3992 17.4128 60.1772 17.5695C59.9487 17.7196 59.7855 17.8959 59.681 18.0918C59.6157 18.1962 59.57 18.3268 59.5374 18.4966C59.5113 18.6663 59.4917 18.9928 59.4917 19.489C59.4917 19.9721 59.5048 20.3051 59.5374 20.4748C59.5505 20.5662 59.57 20.6446 59.5962 20.7034C59.6223 20.7621 59.6484 20.8209 59.681 20.8862C59.7855 21.082 59.9487 21.2518 60.1772 21.402C60.3992 21.5586 60.68 21.637 61.0129 21.6435C61.3524 21.637 61.6332 21.5521 61.8552 21.402C62.0772 21.2518 62.2404 21.082 62.3383 20.8862C62.4101 20.7817 62.4624 20.6446 62.4885 20.4748C62.5146 20.3051 62.5277 19.9786 62.5277 19.489C62.5277 18.9993 62.5146 18.6663 62.4885 18.4966C62.4624 18.3333 62.4101 18.1962 62.3383 18.0918ZM61.8356 20.3377C61.8029 20.4879 61.7442 20.6054 61.6658 20.6968C61.6005 20.7817 61.5157 20.8535 61.4112 20.9123C61.3002 20.9776 61.1631 21.0102 61.0129 21.0102C60.8628 21.0102 60.7322 20.9776 60.6212 20.9123C60.5102 20.8601 60.4188 20.7882 60.3535 20.6968C60.2686 20.6054 60.2164 20.4879 60.1903 20.3377C60.1577 20.1876 60.1446 19.9068 60.1446 19.489C60.1446 19.0711 60.1577 18.7904 60.1903 18.6337C60.2164 18.49 60.2752 18.3725 60.3535 18.2811C60.4188 18.1962 60.5102 18.1179 60.6212 18.0657C60.7322 18.0069 60.8628 17.9808 61.0129 17.9742C61.1631 17.9808 61.3002 18.0069 61.4112 18.0657C61.5157 18.1244 61.6005 18.1962 61.6658 18.2811C61.7507 18.3725 61.8095 18.49 61.8356 18.6337C61.8617 18.7838 61.8813 19.0711 61.8813 19.489C61.8813 19.9068 61.8682 20.1876 61.8356 20.3377Z" fill="white"/>
<path id="Vector_24" d="M66.8501 21.6108H69.5596V21.0036H67.4965V19.7565H69.2593V19.1885H67.4965V17.9741H69.5596V17.3669H66.8501V21.6108Z" fill="white"/>
<path id="Vector_25" d="M75.3246 19.1887C75.1222 19.1626 74.9655 19.143 74.8479 19.1234C74.639 19.0842 74.4888 19.0124 74.3909 18.9145C74.293 18.8165 74.2473 18.7056 74.2473 18.5815C74.2538 18.3791 74.3191 18.2224 74.4627 18.1245C74.5933 18.0265 74.7631 17.9743 74.9589 17.9743C75.3441 17.9808 75.6902 18.0918 76.0101 18.3008L76.3692 17.7719C75.9775 17.4912 75.5204 17.341 74.9916 17.3345C74.5541 17.341 74.2146 17.452 73.973 17.6805C73.7249 17.909 73.6009 18.2094 73.6009 18.575C73.6009 18.8818 73.6988 19.143 73.8947 19.3585C74.084 19.5674 74.3648 19.7045 74.7304 19.7632C74.9328 19.7894 75.1222 19.8155 75.2919 19.8416C75.6641 19.9069 75.8469 20.0962 75.8469 20.4096C75.8403 20.7948 75.5596 20.9907 75.0112 20.9972C74.5476 20.9907 74.1428 20.8536 73.8033 20.5728L73.3789 21.056C73.8294 21.4412 74.3713 21.6371 74.9981 21.6371C75.9709 21.624 76.4671 21.2127 76.4867 20.4031C76.4867 20.1028 76.3953 19.8416 76.206 19.6131C76.0166 19.3911 75.7228 19.2475 75.3246 19.1887Z" fill="white"/>
<path id="Vector_26" d="M88.0694 19.1885H86.3915V17.3669H85.7451V21.6108H86.3915V19.7565H88.0694V21.6108H88.7158V17.3669H88.0694V19.1885Z" fill="white"/>
<path id="Vector_27" d="M93.188 21.6108H95.8975V21.0036H93.8278V19.7565H95.5906V19.1885H93.8278V17.9741H95.8975V17.3669H93.188V21.6108Z" fill="white"/>
<path id="Vector_28" d="M103.021 18.5489C103.008 18.1571 102.871 17.8568 102.596 17.6413C102.374 17.452 102.087 17.3606 101.735 17.3606H100.076V21.6044H100.723V19.7894H101.545L102.42 21.6044H103.184L102.198 19.7241C102.74 19.5217 103.014 19.1299 103.021 18.5489ZM100.723 19.2279V17.9417H101.728C101.93 17.9417 102.094 17.9874 102.198 18.0723C102.335 18.1702 102.407 18.3334 102.414 18.5554C102.414 18.7382 102.355 18.8949 102.237 19.019C102.12 19.1561 101.937 19.2279 101.695 19.2279H100.723Z" fill="white"/>
<path id="Vector_29" d="M107.291 21.6108H110V21.0036H107.93V19.7565H109.693V19.1885H107.93V17.9741H110V17.3669H107.291V21.6108Z" fill="white"/>
</g>
</g>
<defs>
<clipPath id="clip0_308_1136">
<rect width="110" height="21.6435" fill="white"/>
</clipPath>
</defs>
</svg>
